<svg id="Camada_1" data-name="Camada 1" xmlns="http://www.w3.org/2000/svg" viewBox="0 0 126 32"><defs><style>.cls-1{fill:#651b60;}</style></defs><path class="cls-1" d="M13.72,10.2c-.85-.56-1.57-1-2.31-1.51a1.42,1.42,0,0,0-2.15.46c-.95,1.47-1.88,2.94-2.81,4.43A1.4,1.4,0,0,0,7,15.68c1,.61,1.93,1.2,3,1.85L7.65,18.9c-1.74,1-1.85,1.42-.83,3.16l2,3.52a1.43,1.43,0,0,0,2.16.61c1.4-.79,2.79-1.58,4.17-2.39a.82.82,0,0,0,.32-.54c0-.5,0-1,0-1.63l-5.2,2.91L8.09,20.71l5.3-3.15L8.11,14.29l2.51-4,4.89,3.18V7.75h4.22v5.74l5.38-3.18,2.36,4-5.58,3.25,5.58,3.7-2.34,3.83-5.36-3.5V31H14.16A12.78,12.78,0,0,1,1.47,19.64a25.89,25.89,0,0,1,.31-9A12.77,12.77,0,0,1,13.3,1.12a63.86,63.86,0,0,1,8.75.06,12.72,12.72,0,0,1,11.08,10,12.82,12.82,0,0,1,.32,2.75c0,5.53,0,17,0,17.05H21.6v-6a2.69,2.69,0,0,1,.38.2c.79.51,1.57,1,2.37,1.54a1.4,1.4,0,0,0,2.15-.46q1.3-2.12,2.6-4.24a1.45,1.45,0,0,0-.52-2.16l-3.32-2.19L28,16c1.62-.95,1.74-1.41.79-3L26.56,9.25a1.45,1.45,0,0,0-2.22-.56L21.62,10.3c0-.2-.06-.33-.06-.46,0-.82,0-1.64,0-2.46A1.38,1.38,0,0,0,20.1,6H15.29a1.4,1.4,0,0,0-1.56,1.5c0,.68,0,1.36,0,2Z"/><path class="cls-1" d="M59.38,14a3.87,3.87,0,0,1,2.53-1.89c2.4-.36,4.1.49,4.5,3a10.67,10.67,0,0,1,.12,1.6c0,2.17,0,4.35,0,6.52,0,.49-.18.64-.62.63s-.78,0-1.17,0-.55-.16-.54-.59c0-2.08,0-4.17,0-6.25a7,7,0,0,0-.09-1.12c-.17-1-.65-1.62-1.39-1.76a2.18,2.18,0,0,0-2.46,1.11,5.59,5.59,0,0,0-.47,2.1c-.06,2,0,3.92,0,5.88,0,.49-.17.64-.61.63s-.75,0-1.12,0-.55-.16-.55-.58q0-3.07,0-6.15a10.57,10.57,0,0,0-.13-1.49,1.69,1.69,0,0,0-1.16-1.52,2,2,0,0,0-2.07.54,4,4,0,0,0-1.09,3c0,1.86,0,3.71,0,5.57,0,.45-.16.58-.58.6-1.73.12-1.73.12-1.73-1.57,0-3.12,0-6.24,0-9.36,0-.47.1-.65.6-.69,1.38-.08,1.38-.11,1.54,1.26,0,.09,0,.18,0,.39A3.85,3.85,0,0,1,56.24,12,3.08,3.08,0,0,1,59.38,14Z"/><path class="cls-1" d="M70.25,13.74a3.76,3.76,0,0,1,2.29-1.6c2.24-.45,4.63.26,5.46,3.12a8.65,8.65,0,0,1,0,4.81,5.17,5.17,0,0,1-4.62,3.85c-1,.08-2,0-3,0,0,.77,0,1.6,0,2.43s0,1.43,0,2.14c0,.41-.16.55-.52.55H68.67c-.45,0-.61-.16-.6-.64,0-3.46,0-6.91,0-10.37,0-1.73,0-3.46,0-5.19,0-.44.08-.7.57-.64h.06c1.27-.11,1.28-.1,1.48,1.13C70.19,13.44,70.21,13.54,70.25,13.74Zm.11,5.41c0,.73,0,1.46,0,2.19,0,.38.1.6.47.61a17.35,17.35,0,0,0,2.39,0,2.65,2.65,0,0,0,2.14-1.59,5.93,5.93,0,0,0,.05-5.12,2,2,0,0,0-1.49-1.19A2.84,2.84,0,0,0,70.36,17C70.34,17.72,70.36,18.43,70.36,19.15Z"/><path class="cls-1" d="M49.73,23.64c-.74,0-1.46,0-2.18,0-.12,0-.29-.23-.34-.39-.34-1.07-.66-2.14-1-3.25-1.89,0-3.75,0-5.62,0-.13,0-.33.23-.38.39-.3.93-.58,1.87-.83,2.82a.54.54,0,0,1-.55.47H36.9c.11-.37.18-.61.26-.86Q39.39,16,41.63,9.1a1.8,1.8,0,0,1,1.72-1.34,1.76,1.76,0,0,1,1.7,1.3q2.33,7.14,4.64,14.29A2,2,0,0,1,49.73,23.64Zm-6.4-13.29h-.12L41,18h4.66Z"/><path class="cls-1" d="M114.08,17.9c.08-1.92.49-3.57,2-4.76a5.31,5.31,0,0,1,8.62,3.35,8.9,8.9,0,0,1-.09,3.45,5.29,5.29,0,0,1-10.42-.84C114.11,18.65,114.1,18.21,114.08,17.9Zm7.83,2.69a7.59,7.59,0,0,0-.06-5.23v0a2.72,2.72,0,0,0-4.86.09,6.84,6.84,0,0,0,0,5.2,2.72,2.72,0,0,0,4.93,0Z"/><path class="cls-1" d="M91.33,16.51c.18-1.59-.4-2.43-1.92-2.53a13.45,13.45,0,0,0-3,.27c-.4.07-.56,0-.66-.37,0,0,0,0,0-.05-.4-1.16-.28-1.37.92-1.59a9.68,9.68,0,0,1,4.08,0,3.42,3.42,0,0,1,2.82,3.65c.06,2.41,0,4.82,0,7.22,0,.14-.16.39-.28.41a13.5,13.5,0,0,1-5.76.34,3.26,3.26,0,0,1-2.87-2.76,3.58,3.58,0,0,1,2-4,7.68,7.68,0,0,1,3.82-.57Zm0,1.89a4.87,4.87,0,0,0-1-.11,12.62,12.62,0,0,0-2.39.32,1.67,1.67,0,0,0-1,1.92A1.5,1.5,0,0,0,88.23,22a20.88,20.88,0,0,0,2.85,0,.45.45,0,0,0,.28-.34C91.38,20.58,91.37,19.52,91.37,18.4Z"/><path class="cls-1" d="M110.47,16.55A1.92,1.92,0,0,0,108.8,14a7.19,7.19,0,0,0-3.16.28c-.36.1-.55,0-.63-.33a1,1,0,0,0,0-.1c-.4-1.14-.29-1.35.87-1.57a10.62,10.62,0,0,1,3.77-.13,3.45,3.45,0,0,1,3.15,3.53c.07,2.47,0,4.95,0,7.43a.52.52,0,0,1-.22.4,13,13,0,0,1-6.08.29A3.18,3.18,0,0,1,103.88,21a3.59,3.59,0,0,1,1.91-3.85,7.32,7.32,0,0,1,3.75-.62Zm.08,1.85c-.47,0-.85-.11-1.24-.13a4.27,4.27,0,0,0-2.33.41,1.87,1.87,0,0,0-.83,2,1.53,1.53,0,0,0,1.27,1.34,21.81,21.81,0,0,0,2.8-.05.44.44,0,0,0,.32-.31C110.56,20.61,110.55,19.53,110.55,18.4Z"/><path class="cls-1" d="M100.21,24.86l.94.11a1.88,1.88,0,0,1,1.66,1.51,1.93,1.93,0,0,1-1,2.15,5.23,5.23,0,0,1-3.59.29.53.53,0,0,1-.29-.41c0-.83.18-1,1-.88a5.57,5.57,0,0,0,1.68-.13.87.87,0,0,0,.49-.69.9.9,0,0,0-.61-.6,19.49,19.49,0,0,0-2.19,0l.82-2.29-.39-.12a4.6,4.6,0,0,1-3.47-3.49,7.91,7.91,0,0,1,.12-4.79,4.93,4.93,0,0,1,4.41-3.44,8.62,8.62,0,0,1,3.38.31c.33.1.48.26.39.61s-.19.86-.27,1.24c-.93-.09-1.77-.23-2.61-.25a2.94,2.94,0,0,0-3.16,2.38,6.18,6.18,0,0,0,0,3.54,2.94,2.94,0,0,0,2.75,2.18,10.33,10.33,0,0,0,2.53-.23c.4-.07.53,0,.66.35.46,1.24.37,1.42-1,1.65a5.36,5.36,0,0,1-1.32.16C100.46,23.92,100.3,24.3,100.21,24.86Z"/><path class="cls-1" d="M84.18,22c0,.51.13,1,.14,1.45a.52.52,0,0,1-.33.37,11.8,11.8,0,0,1-2.38-.06,2.42,2.42,0,0,1-2-2.61c0-4.31,0-8.62,0-12.93,0-.31.11-.43.43-.46,1.83-.18,1.83-.19,1.83,1.61V20.09a4.69,4.69,0,0,0,0,.53c.07,1.13.57,1.54,1.71,1.41Z"/><path class="cls-1" d="M111.61,8.06c.08,0,.1,0,.11.07.93,1.31.94,1.55-.64,2.21a3.65,3.65,0,0,1-1.71,0,3.15,3.15,0,0,1-1-.36c-1.49-.64-1.67-.63-3.1.22a8.31,8.31,0,0,1-.57-1.11.65.65,0,0,1,.19-.54,2.54,2.54,0,0,1,2.74-.68,7.72,7.72,0,0,1,1,.43A2.25,2.25,0,0,0,111.61,8.06Z"/></svg>